<svg height="512" viewBox="0 0 74 74" width="512" xmlns="http://www.w3.org/2000/svg"><g id="Icons"><path d="m57.13 14.78a1 1 0 0 1 -.755-.344 15.971 15.971 0 0 0 -2.069-1.995 1 1 0 1 1 1.249-1.562 18.016 18.016 0 0 1 2.329 2.245 1 1 0 0 1 -.754 1.656z"/><path d="m15.5 46.58h-2.91a10.59 10.59 0 0 1 -.626-21.162 14.891 14.891 0 0 1 14.566-11.648 14.444 14.444 0 0 1 2.81.275 18.468 18.468 0 0 1 6.96-5.575 1.03 1.03 0 0 1 1.421.91 1 1 0 0 1 -.662.943 16.488 16.488 0 0 0 -6.488 5.416 1 1 0 0 1 -1.049.393 12.7 12.7 0 0 0 -3-.362 12.9 12.9 0 0 0 -12.754 10.8 1 1 0 0 1 -.986.834h-.2a8.59 8.59 0 1 0 0 17.18h2.918a1 1 0 0 1 0 2z"/><path d="m48.71 9.44a.965.965 0 0 1 -.274-.039 15.729 15.729 0 0 0 -2.851-.535 1 1 0 0 1 .085-2h.01a17.557 17.557 0 0 1 3.3.609 1 1 0 0 1 -.27 1.965z"/><path d="m61.41 46.58h-2.91a1 1 0 0 1 0-2h2.91a8.59 8.59 0 1 0 0-17.18 1.053 1.053 0 0 1 -.759-.321 1.018 1.018 0 0 1 -.288-.756c.029-.372.057-.723.057-1.093a15.977 15.977 0 0 0 -.451-3.811 1 1 0 0 1 1.942-.478 17.961 17.961 0 0 1 .509 4.289q0 .111 0 .222a10.588 10.588 0 0 1 -1.01 21.128z"/><path d="m57.5 53.208h-41a2 2 0 0 1 -2-2v-11.25a2 2 0 0 1 2-2h41a2 2 0 0 1 2 2v11.25a2 2 0 0 1 -2 2zm-41-13.25v11.25h41v-11.25z"/><path d="m51.531 48.958a3.375 3.375 0 1 1 3.375-3.375 3.379 3.379 0 0 1 -3.375 3.375zm0-4.75a1.375 1.375 0 1 0 1.375 1.375 1.376 1.376 0 0 0 -1.375-1.375z"/><path d="m42.906 48.958a3.375 3.375 0 1 1 3.375-3.375 3.379 3.379 0 0 1 -3.375 3.375zm0-4.75a1.375 1.375 0 1 0 1.375 1.375 1.376 1.376 0 0 0 -1.375-1.375z"/><path d="m36.531 46.583h-16.437a1 1 0 1 1 0-2h16.437a1 1 0 1 1 0 2z"/><path d="m56.163 63.708h-13a1 1 0 0 1 0-2h13a1 1 0 0 1 0 2z"/><path d="m37 60.208a1 1 0 0 1 -1-1v-7a1 1 0 0 1 2 0v7a1 1 0 0 1 -1 1z"/><path d="m43.163 67.208h-12.333a1 1 0 0 1 -1-1v-7a1 1 0 0 1 1-1h12.333a1 1 0 0 1 1 1v7a1 1 0 0 1 -1 1zm-11.333-2h10.333v-5h-10.333z"/><path d="m30.833 63.708h-13a1 1 0 0 1 0-2h13a1 1 0 0 1 0 2z"/></g></svg>