<?xml version="1.0" encoding="UTF-8"?>
<svg width="64px" height="64px" viewBox="0 0 64 64" version="1.1" xmlns="http://www.w3.org/2000/svg" xmlns:xlink="http://www.w3.org/1999/xlink">
    <!-- Generator: Sketch 61.2 (89653) - https://sketch.com -->
    <title>cpu</title>
    <desc>Created with Sketch.</desc>
    <g id="Page-1" stroke="none" stroke-width="1" fill="none" fill-rule="evenodd">
        <g id="Icon" transform="translate(2.000000, 1.500000)">
            <g id="Group-2" transform="translate(0.000000, 14.877049)" stroke="#FFFFFF" stroke-linecap="round" stroke-width="3">
                <g id="Group" transform="translate(0.000000, 0.000000)">
                    <line x1="2.16383928e-15" y1="0.768647541" x2="5" y2="0.768647541" id="Line"></line>
                    <line x1="2.16383928e-15" y1="7.30215164" x2="5" y2="7.30215164" id="Line-Copy"></line>
                    <line x1="2.16383928e-15" y1="14.988627" x2="5" y2="14.988627" id="Line-Copy-2"></line>
                    <line x1="2.16383928e-15" y1="22.6751025" x2="5" y2="22.6751025" id="Line-Copy-3"></line>
                    <line x1="2.16383928e-15" y1="30.3615779" x2="5" y2="30.3615779" id="Line-Copy-4"></line>
                </g>
                <g id="Group-Copy-2" transform="translate(55.000000, 0.000000)">
                    <line x1="2.16383928e-15" y1="0.768647541" x2="5" y2="0.768647541" id="Line"></line>
                    <line x1="2.16383928e-15" y1="7.30215164" x2="5" y2="7.30215164" id="Line-Copy"></line>
                    <line x1="2.16383928e-15" y1="14.988627" x2="5" y2="14.988627" id="Line-Copy-2"></line>
                    <line x1="2.16383928e-15" y1="22.6751025" x2="5" y2="22.6751025" id="Line-Copy-3"></line>
                    <line x1="2.16383928e-15" y1="30.3615779" x2="5" y2="30.3615779" id="Line-Copy-4"></line>
                </g>
            </g>
            <g id="Group-2-Copy" transform="translate(30.000000, 30.377049) rotate(90.000000) translate(-30.000000, -30.377049) translate(0.000000, 14.877049)" stroke="#FFFFFF" stroke-linecap="round" stroke-width="3">
                <g id="Group" transform="translate(0.000000, 0.000000)">
                    <line x1="2.16383928e-15" y1="0.768647541" x2="5" y2="0.768647541" id="Line"></line>
                    <line x1="2.16383928e-15" y1="7.30215164" x2="5" y2="7.30215164" id="Line-Copy"></line>
                    <line x1="2.16383928e-15" y1="14.988627" x2="5" y2="14.988627" id="Line-Copy-2"></line>
                    <line x1="2.16383928e-15" y1="22.6751025" x2="5" y2="22.6751025" id="Line-Copy-3"></line>
                    <line x1="2.16383928e-15" y1="30.3615779" x2="5" y2="30.3615779" id="Line-Copy-4"></line>
                </g>
                <g id="Group-Copy-2" transform="translate(55.000000, 0.000000)">
                    <line x1="2.16383928e-15" y1="0.768647541" x2="5" y2="0.768647541" id="Line"></line>
                    <line x1="2.16383928e-15" y1="7.30215164" x2="5" y2="7.30215164" id="Line-Copy"></line>
                    <line x1="2.16383928e-15" y1="14.988627" x2="5" y2="14.988627" id="Line-Copy-2"></line>
                    <line x1="2.16383928e-15" y1="22.6751025" x2="5" y2="22.6751025" id="Line-Copy-3"></line>
                    <line x1="2.16383928e-15" y1="30.3615779" x2="5" y2="30.3615779" id="Line-Copy-4"></line>
                </g>
            </g>
            <rect id="Rectangle" stroke="#FFFFFF" stroke-width="4" x="7" y="6.95901639" width="46" height="46.5819672" rx="10"></rect>
            <text id="CPU" font-family="Helvetica-Bold, Helvetica" font-size="12" font-weight="bold" fill="#FFFFFF">
                <tspan x="17.3320312" y="34">CPU</tspan>
            </text>
        </g>
    </g>
</svg>